<svg width="28" height="28" viewBox="0 0 28 28" fill="none" xmlns="http://www.w3.org/2000/svg">
<path d="M21 21V24.5H7V21H5.25V24.5C5.25 24.9641 5.43437 25.4092 5.76256 25.7374C6.09075 26.0656 6.53587 26.25 7 26.25H21C21.4641 26.25 21.9092 26.0656 22.2374 25.7374C22.5656 25.4092 22.75 24.9641 22.75 24.5V21H21Z" fill="white"/>
<path d="M18.375 18.375L17.1378 17.1378L14.875 19.4005V12.25H13.125V19.4005L10.8622 17.1378L9.625 18.375L14 22.75L18.375 18.375Z" fill="white"/>
<path d="M24.5 3.5V1.75H19.25V10.5H21V7H23.625V5.25H21V3.5H24.5Z" fill="white"/>
<path d="M14.875 10.5H11.375V1.75H14.875C15.571 1.75069 16.2383 2.02748 16.7304 2.51961C17.2225 3.01174 17.4993 3.67902 17.5 4.375V7.875C17.4993 8.57098 17.2225 9.23826 16.7304 9.73039C16.2383 10.2225 15.571 10.4993 14.875 10.5ZM13.125 8.75H14.875C15.107 8.74977 15.3294 8.65751 15.4935 8.49346C15.6575 8.32942 15.7498 8.10699 15.75 7.875V4.375C15.7498 4.14301 15.6575 3.92058 15.4935 3.75654C15.3294 3.59249 15.107 3.50023 14.875 3.5H13.125V8.75Z" fill="white"/>
<path d="M7.875 1.75H3.5V10.5H5.25V7.875H7.875C8.33892 7.87431 8.78363 7.68971 9.11167 7.36167C9.43971 7.03363 9.62431 6.58892 9.625 6.125V3.5C9.62454 3.03601 9.44001 2.59116 9.11193 2.26307C8.78384 1.93499 8.33899 1.75046 7.875 1.75ZM5.25 6.125V3.5H7.875L7.87588 6.125H5.25Z" fill="white"/>
</svg>
