<svg width="38" height="38" viewBox="0 0 38 38" fill="none" xmlns="http://www.w3.org/2000/svg">
    <path d="M19 0C8.50651 0 0 8.50651 0 19C0 29.4935 8.50651 38 19 38C29.4935 38 38 29.4935 38 19C38 8.50651 29.4935 0 19 0Z" fill="#40B3E0"/>
    <path d="M28.2451 10.9294L24.8514 28.0396C24.8514 28.0396 24.3768 29.2262 23.0716 28.6567L15.2404 22.6527L12.3927 21.2764L7.59909 19.6625C7.59909 19.6625 6.86344 19.4016 6.79219 18.832C6.72094 18.2625 7.62284 17.954 7.62284 17.954L26.6787 10.4787C26.6787 10.4787 28.245 9.79056 28.245 10.9297" fill="white"/>
    <path d="M14.6386 27.8474C14.6386 27.8474 14.41 27.826 14.125 26.9241C13.8404 26.0224 12.3927 21.2762 12.3927 21.2762L23.9023 13.9672C23.9023 13.9672 24.5668 13.5637 24.5431 13.9672C24.5431 13.9672 24.6617 14.0384 24.3056 14.3706C23.9498 14.703 15.2643 22.5103 15.2643 22.5103" fill="#D2E5F1"/>
    <path d="M18.2431 24.9546L15.1457 27.7788C15.1457 27.7788 14.9034 27.9625 14.6386 27.8473L15.2318 22.6016" fill="#B5CFE4"/>
    </svg>