<svg width="36" height="38" viewBox="0 0 36 38" fill="none" xmlns="http://www.w3.org/2000/svg">
    <g clip-path="url(#clip0)">
    <path d="M9.51508 32.5455L10.1036 32.8526C12.5561 34.3877 15.3026 35.1041 18.0493 35.1041C26.6816 35.1041 33.7443 27.7354 33.7443 18.7291C33.7443 14.4307 32.0767 10.2345 29.134 7.16416C26.1911 4.09379 22.2672 2.354 18.0493 2.354C9.41707 2.354 2.35418 9.72277 2.45234 18.8315C2.45234 21.9017 3.33518 24.8698 4.80654 27.4283L5.19888 28.0424L3.62951 34.0808L9.51508 32.5455Z" fill="#00E676" fill-opacity="0.6"/>
    <path d="M30.8015 5.52658C27.4663 1.9446 22.8559 0 18.1474 0C8.14191 0 0.0981562 8.49454 0.196172 18.8313C0.196172 22.1063 1.07902 25.2791 2.55052 28.1447L0 37.8674L9.51511 35.3088C12.1636 36.844 15.1064 37.5604 18.0494 37.5604C27.9568 37.5604 36.0006 29.0657 36.0006 18.7292C36.0006 13.7142 34.1367 9.00629 30.8017 5.52658H30.8015ZM18.1474 34.3878C15.4988 34.3878 12.8503 33.6715 10.5941 32.2387L10.0056 31.9316L4.3162 33.4667L5.78756 27.6332L5.39522 27.019C1.07902 19.7527 3.13903 10.1321 10.2018 5.62884C17.2645 1.12577 26.3873 3.27504 30.7035 10.6438C35.0196 18.0126 32.9595 27.5306 25.8969 32.0339C23.6406 33.569 20.8941 34.3877 18.1474 34.3877V34.3878ZM26.7796 23.0277L25.7006 22.516C25.7006 22.516 24.1312 21.7995 23.1502 21.2878C23.0521 21.2878 22.9541 21.1854 22.8559 21.1854C22.5616 21.1854 22.3654 21.2878 22.1692 21.3902C22.1692 21.3902 22.0712 21.4925 20.6979 23.13C20.5997 23.3346 20.4036 23.4371 20.2074 23.4371H20.1092C20.0112 23.4371 19.815 23.3346 19.7169 23.2324L19.2264 23.0277C18.1474 22.516 17.1665 21.9018 16.3817 21.0831C16.1855 20.8784 15.8912 20.6738 15.695 20.4691C15.0083 19.7527 14.3217 18.9338 13.8313 18.0127L13.7332 17.8081C13.6351 17.7057 13.6351 17.6034 13.537 17.3987C13.537 17.194 13.537 16.9894 13.6351 16.887C13.6351 16.887 14.0275 16.3752 14.3217 16.0683C14.518 15.8635 14.616 15.5565 14.8122 15.3519C15.0083 15.0448 15.1065 14.6354 15.0083 14.3283C14.9103 13.8166 13.7332 11.0533 13.439 10.4393C13.2427 10.1322 13.0466 10.0299 12.7523 9.92754H11.6733C11.477 9.92754 11.2809 10.0299 11.0846 10.0299L10.9865 10.1322C10.7903 10.2346 10.5941 10.4393 10.398 10.5416C10.2018 10.7464 10.1036 10.9509 9.90745 11.1557C9.22078 12.0768 8.82844 13.2026 8.82844 14.3283C8.82844 15.147 9.02461 15.9659 9.31894 16.6823L9.41709 16.9894C10.2999 18.9338 11.477 20.6738 13.0466 22.2089L13.439 22.6182C13.7332 22.9253 14.0275 23.13 14.2237 23.4369C16.2837 25.2792 18.6379 26.6097 21.2864 27.3261C21.5807 27.4284 21.9731 27.4284 22.2674 27.5308H23.2483C23.7388 27.5308 24.3273 27.3261 24.7198 27.1214C25.014 26.9168 25.2101 26.9168 25.4063 26.7121L25.6026 26.5073C25.7988 26.3026 25.995 26.2003 26.1911 25.9957C26.3873 25.791 26.5835 25.5863 26.6816 25.3815C26.8778 24.9722 26.9758 24.4604 27.074 23.9488V23.2324C27.074 23.2324 26.9758 23.13 26.7796 23.0277Z" fill="white"/>
    </g>
    <defs>
    <clipPath id="clip0">
    <rect width="36" height="38" fill="white"/>
    </clipPath>
    </defs>
    </svg>